<?xml version="1.0" encoding="UTF-8" standalone="no"?>
<svg
   xmlns:dc="http://purl.org/dc/elements/1.1/"
   xmlns:cc="http://creativecommons.org/ns#"
   xmlns:rdf="http://www.w3.org/1999/02/22-rdf-syntax-ns#"
   xmlns:svg="http://www.w3.org/2000/svg"
   xmlns="http://www.w3.org/2000/svg"
   xmlns:sodipodi="http://sodipodi.sourceforge.net/DTD/sodipodi-0.dtd"
   xmlns:inkscape="http://www.inkscape.org/namespaces/inkscape"
   width="16"
   height="16"
   fill="currentColor"
   class="bi bi-wrench"
   viewBox="0 0 16 16"
   version="1.1"
   id="svg4"
   sodipodi:docname="wrench.svg"
   inkscape:version="0.92.3 (2405546, 2018-03-11)">
  <metadata
     id="metadata10">
    <rdf:RDF>
      <cc:Work
         rdf:about="">
        <dc:format>image/svg+xml</dc:format>
        <dc:type
           rdf:resource="http://purl.org/dc/dcmitype/StillImage" />
      </cc:Work>
    </rdf:RDF>
  </metadata>
  <defs
     id="defs8" />
  <sodipodi:namedview
     pagecolor="#ffffff"
     bordercolor="#666666"
     borderopacity="1"
     objecttolerance="10"
     gridtolerance="10"
     guidetolerance="10"
     inkscape:pageopacity="0"
     inkscape:pageshadow="2"
     inkscape:window-width="1536"
     inkscape:window-height="801"
     id="namedview6"
     showgrid="false"
     inkscape:zoom="35.837891"
     inkscape:cx="8"
     inkscape:cy="8"
     inkscape:window-x="-8"
     inkscape:window-y="-8"
     inkscape:window-maximized="1"
     inkscape:current-layer="svg4" />
  <path
     d="M.102 2.223A3.004 3.004 0 0 0 3.78 5.897l6.341 6.252A3.003 3.003 0 0 0 13 16a3 3 0 1 0-.851-5.878L5.897 3.781A3.004 3.004 0 0 0 2.223.1l2.141 2.142L4 4l-1.757.364L.102 2.223zm13.37 9.019.528.026.287.445.445.287.026.529L15 13l-.242.471-.026.529-.445.287-.287.445-.529.026L13 15l-.471-.242-.529-.026-.287-.445-.445-.287-.026-.529L11 13l.242-.471.026-.529.445-.287.287-.445.529-.026L13 11l.471.242z"
     id="path2" />
  <path
     style="opacity:1;fill:#ffffff;fill-opacity:1;stroke-width:0.01054618;stroke-linecap:round"
     d="m 12.622194,15.96179 c -1.279277,-0.166323 -2.316935,-1.152475 -2.559796,-2.432736 -0.05404,-0.284866 -0.05249,-0.781348 0.0033,-1.067296 0.02397,-0.122775 0.0455,-0.24834 0.04786,-0.279034 0.0031,-0.03978 -0.9046662,-0.952396 -3.1596569,-3.1767281 C 3.8722967,5.9662559 3.7877381,5.8855511 3.7031838,5.9033936 3.30656,5.9870883 2.8155219,5.998445 2.4653652,5.9320214 1.544615,5.757358 0.75216879,5.1633356 0.33994079,4.3387901 0.11747771,3.8938155 0.02080361,3.4772023 0.02338205,2.9745926 0.02480171,2.6978639 0.06714571,2.344991 0.1065918,2.2811659 0.11493032,2.2676739 0.60040665,2.7339621 1.1854281,3.317362 L 2.2491035,4.378089 3.1308409,4.1953336 4.0125781,4.0125781 4.1953336,3.1308409 4.378089,2.2491035 3.317362,1.1854281 C 2.7339621,0.60040665 2.2676739,0.11493032 2.2811659,0.1065918 2.3149724,0.08569821 2.6023606,0.03748747 2.8211238,0.0160113 3.0587873,-0.00732035 3.5223439,0.04535275 3.8074781,0.12808898 4.9020412,0.44569381 5.6913507,1.3062877 5.9319511,2.4444275 c 0.055448,0.2622928 0.054643,0.8492643 -0.00154,1.1212535 l -0.043798,0.2120395 0.1205322,0.1274272 c 0.1753697,0.1854012 3.873858,3.939589 5.0985707,5.1753556 l 1.045951,1.0553907 0.182948,-0.04724 c 0.245141,-0.06329 0.800656,-0.08451 1.093109,-0.04175 0.626646,0.09163 1.219264,0.390044 1.670321,0.841101 1.149415,1.149415 1.177341,2.977232 0.06353,4.157933 -0.650527,0.689593 -1.612127,1.036401 -2.539381,0.915845 z m 0.625277,-1.072434 c 0.206139,-0.111457 0.252248,-0.125565 0.410382,-0.125565 0.32011,0 0.343011,-0.01145 0.49683,-0.248296 0.114721,-0.176648 0.174133,-0.236069 0.355351,-0.355407 0.242793,-0.159887 0.253757,-0.181588 0.253757,-0.502235 0,-0.158417 0.01406,-0.204153 0.12693,-0.412905 L 15.01765,13.010193 14.890721,12.757461 C 14.779825,12.536655 14.763374,12.480865 14.76049,12.315823 14.75519,12.010215 14.74604,11.992977 14.50801,11.837926 14.326171,11.719478 14.272764,11.66534 14.151938,11.476984 l -0.142146,-0.221593 -0.273962,-0.01319 c -0.259254,-0.01248 -0.286157,-0.01978 -0.501149,-0.135901 l -0.227188,-0.122709 -0.244964,0.122224 c -0.225105,0.112316 -0.266454,0.123348 -0.510047,0.136084 l -0.265082,0.01386 -0.139517,0.220591 c -0.121962,0.192835 -0.167981,0.238865 -0.365728,0.365822 l -0.226211,0.145231 -0.01395,0.265082 c -0.01282,0.24349 -0.02391,0.285038 -0.136178,0.510047 l -0.122224,0.244964 0.122709,0.227188 c 0.116121,0.214992 0.123417,0.241895 0.135901,0.501149 l 0.01319,0.273962 0.221593,0.142146 c 0.188356,0.120826 0.242494,0.174233 0.360942,0.356072 0.155294,0.238405 0.170398,0.246323 0.484315,0.253881 0.17144,0.0041 0.224326,0.01971 0.432503,0.127465 0.130449,0.06752 0.242425,0.123394 0.248838,0.124164 0.0064,7.71e-4 0.116162,-0.0551 0.243889,-0.124164 z"
     id="path817"
     inkscape:connector-curvature="0" />
</svg>
